<svg width="50" height="50" viewBox="0 0 50 50" fill="none" xmlns="http://www.w3.org/2000/svg">
<rect width="50" height="50" rx="4" fill="#E5EEEB"/>
<g clip-path="url(#clip0_1_33)">
<path d="M19.0344 31.9274H22.6779V32.2298H19.0344V31.9274ZM35.0394 31.9274H43V32.2298H35.0394V31.9274ZM34.8445 20.8783C35.176 21.3342 35.4438 21.7345 35.657 22.0911C35.7259 20.9451 35.9243 20.2455 36.1206 19.8437V23.0013C36.2229 23.2603 36.2963 23.5326 36.3003 23.8192C36.3006 24.0227 36.2608 24.2093 36.1813 24.3772C36.1639 24.4148 36.1426 24.451 36.1206 24.4867V30.3884C36.1206 30.6189 36.2122 30.8401 36.3752 31.0031C36.5383 31.1661 36.7594 31.2577 36.99 31.2577C37.2205 31.2577 37.4417 31.1661 37.6047 31.0031C37.7678 30.8401 37.8593 30.6189 37.8593 30.3884V24.0417H38.1851V30.3884C38.1851 30.6189 38.2767 30.84 38.4397 31.003C38.6027 31.166 38.8238 31.2576 39.0544 31.2576C39.2849 31.2576 39.506 31.166 39.669 31.003C39.832 30.84 39.9236 30.6189 39.9236 30.3884V23.2882C37.9404 21.1583 36.5847 18.8078 36.257 18.2163C36.1946 18.2371 36.1291 18.2635 36.0608 18.298C35.6827 18.4853 35.275 18.8954 34.9897 19.6224C34.8697 19.9256 34.7664 20.286 34.6863 20.717C34.7464 20.7631 34.7996 20.8173 34.8445 20.8783ZM34.509 23.3363L34.5104 23.3964L34.5425 23.4032C34.5315 23.3808 34.5203 23.3585 34.509 23.3363Z" fill="#45766A"/>
<path d="M37.4386 19.6932C38.0461 20.6195 38.8963 21.7997 39.9237 22.9308V19.8455C39.9654 19.9309 40.0074 20.029 40.0489 20.1434C40.2471 20.6927 40.4137 21.594 40.4131 23.0005C40.4131 23.3882 40.4007 23.8141 40.3733 24.2817C40.3688 24.3583 40.38 24.435 40.4063 24.5071C40.4325 24.5791 40.4732 24.6451 40.5258 24.7008C40.5785 24.7566 40.642 24.801 40.7124 24.8313C40.7829 24.8617 40.8588 24.8772 40.9355 24.8771C41.0789 24.877 41.2168 24.822 41.321 24.7236C41.4253 24.6251 41.488 24.4906 41.4964 24.3474C41.5232 23.8989 41.5371 23.4498 41.538 23.0005C41.5352 20.8786 41.1964 19.7042 40.7341 18.998C40.5033 18.6476 40.2329 18.4227 39.9833 18.2979C39.734 18.1725 39.515 18.1472 39.3904 18.1477L39.3881 18.1478C39.3854 18.1477 39.3831 18.147 39.3803 18.147H36.6642C36.6609 18.147 36.6578 18.1479 36.6546 18.1479H36.654C36.6031 18.1481 36.5523 18.1518 36.502 18.1589C36.658 18.4374 36.9782 18.9914 37.4386 19.6932Z" fill="#45766A"/>
<path d="M38.0221 17.7463C38.8957 17.7463 39.6039 17.038 39.6039 16.1644C39.6039 15.2907 38.8957 14.5825 38.0221 14.5825C37.1484 14.5825 36.4402 15.2907 36.4402 16.1644C36.4402 17.038 37.1484 17.7463 38.0221 17.7463Z" fill="#45766A"/>
<path d="M11.7654 25.8764V40.022C11.7654 40.8482 12.4352 41.5175 13.2609 41.5175C14.0869 41.5175 14.7567 40.8482 14.7567 40.022V29.1022H15.3174V40.022C15.3174 40.8482 15.9871 41.5175 16.8129 41.5175C17.6388 41.5175 18.3086 40.8482 18.3086 40.022V21.882C18.3893 22.049 18.4612 22.2201 18.5239 22.3947C18.8648 23.3398 19.1516 24.8903 19.1506 27.3106C19.1506 27.9776 19.1291 28.7104 19.0824 29.5152C19.0512 30.0487 19.4585 30.5063 19.9922 30.5377C20.2484 30.5526 20.5001 30.4652 20.6918 30.2946C20.8835 30.1239 20.9996 29.8842 21.0146 29.6279C21.0635 28.7892 21.0862 28.0192 21.0862 27.3107C21.0813 23.6595 20.4982 21.639 19.7031 20.4239C19.3056 19.8208 18.8407 19.4339 18.4113 19.2197C17.9951 19.0099 17.6293 18.9636 17.4116 18.9614C17.3992 18.961 17.3866 18.9595 17.3738 18.9595H16.806L16.5086 21.2843L15.3292 19.863L16.1445 18.9595H13.9293L14.7446 19.863L13.5652 21.2843L13.2678 18.9595H12.7003C12.6641 18.9595 12.6284 18.962 12.5933 18.9662C12.1649 18.972 11.7247 18.9968 11.2983 19.0082C11.1776 19.0114 11.0573 19.0144 10.9397 19.0143C10.249 19.0216 9.65036 18.9236 9.37238 18.7513C9.22855 18.6659 9.15017 18.5878 9.07577 18.4533C9.00392 18.3178 8.93594 18.0979 8.93545 17.7244C8.93473 17.3213 9.02122 16.7485 9.24912 16.0019C9.32378 15.7563 9.29787 15.4912 9.17707 15.2648C9.05628 15.0383 8.85049 14.8691 8.60497 14.7944C8.59844 14.7924 8.59203 14.7914 8.5855 14.7896V12.2678C8.84981 11.8437 9.52419 11.0863 10.7023 11.7887C13.8942 13.6913 14.0893 9.24813 14.0893 9.24813C14.0893 9.24813 12.4159 10.1757 11.2062 9.08701C10.1824 8.16561 8.94235 8.68818 8.58538 8.8706V8.48218H8.1418V14.7699C7.96856 14.8028 7.80764 14.8825 7.67643 15.0003C7.54522 15.1182 7.44872 15.2696 7.39737 15.4383C7.1321 16.3128 7.00097 17.058 7 17.7242C6.99952 18.3343 7.11552 18.8884 7.36629 19.3607C7.74152 20.0793 8.40792 20.5098 9.0419 20.7067C9.68363 20.9116 10.3297 20.9475 10.9397 20.9495C10.9731 20.9495 11.0061 20.9488 11.0394 20.9485C11.2897 20.9464 11.5336 20.9385 11.7653 20.9293L11.7654 25.8764Z" fill="#45766A"/>
<path d="M15.4809 18.2337C16.773 18.0217 17.7586 16.9005 17.7586 15.5486C17.7586 14.0453 16.5403 12.8269 15.0369 12.8269C13.5338 12.8269 12.3152 14.0453 12.3152 15.5486C12.3152 16.9005 13.3011 18.0217 14.593 18.2337C14.7375 18.2574 14.8857 18.2704 15.0369 18.2704C15.1881 18.2704 15.3364 18.2575 15.4809 18.2337ZM29.223 24.1174C29.1011 22.8997 28.8282 22.1248 28.4883 21.6051C28.2575 21.2548 27.9871 21.0298 27.7377 20.9054C27.4882 20.7797 27.2692 20.7546 27.1445 20.7551H27.1443C27.141 20.7551 27.1381 20.7541 27.1348 20.7541H26.6505C26.8714 21.6864 26.9293 22.5453 26.9293 23.1876C26.9293 23.5745 26.9085 23.8826 26.8899 24.082V25.3736H24.6635V24.0837C24.6364 23.7858 24.6232 23.4869 24.6238 23.1877C24.6238 22.5453 24.6818 21.6866 24.9028 20.7543H24.4185C24.4153 20.7543 24.4121 20.7552 24.409 20.7552H24.4084C24.2839 20.7548 24.0646 20.7796 23.8154 20.9055C23.4371 21.0929 23.0296 21.5032 22.7442 22.2299C22.4555 22.9597 22.2616 24.0147 22.2606 25.6078C22.2609 26.0195 22.2738 26.4672 22.3027 26.955C22.3111 27.0981 22.3739 27.2326 22.4781 27.331C22.5824 27.4294 22.7203 27.4843 22.8636 27.4844C22.8748 27.4844 22.8859 27.484 22.8971 27.4835C23.046 27.4747 23.1854 27.4072 23.2845 27.2957C23.3836 27.1842 23.4344 27.0379 23.4256 26.889C23.3997 26.4624 23.3864 26.0352 23.3857 25.6078C23.3832 23.9048 23.6314 22.9498 23.8755 22.4508V32.9959C23.8755 33.2264 23.9671 33.4475 24.1301 33.6105C24.2931 33.7736 24.5142 33.8651 24.7448 33.8651C24.9753 33.8651 25.1964 33.7736 25.3594 33.6105C25.5225 33.4475 25.614 33.2264 25.614 32.9959V26.6492H25.9398V32.9959C25.9398 33.2265 26.0314 33.4476 26.1944 33.6106C26.3575 33.7737 26.5786 33.8653 26.8092 33.8653C27.0398 33.8653 27.2609 33.7737 27.4239 33.6106C27.587 33.4476 27.6786 33.2265 27.6786 32.9959V22.4532C27.7202 22.5385 27.7621 22.6365 27.8035 22.7507C28.0018 23.3002 28.1683 24.2013 28.1679 25.608C28.1679 25.9955 28.1553 26.4215 28.1282 26.8893C28.1163 27.0942 28.2167 27.2781 28.3748 27.3857C28.4311 26.3378 28.588 25.4955 28.8513 24.8296C28.9631 24.5435 29.0905 24.3097 29.223 24.1174Z" fill="#45766A"/>
<path d="M24.8345 23.1876C24.8345 23.5101 24.8494 23.7759 24.8651 23.9675H26.688C26.7035 23.7759 26.7184 23.5101 26.7184 23.1876C26.7184 22.5465 26.6583 21.6845 26.4326 20.7542H25.1203C24.8946 21.6846 24.8345 22.5466 24.8345 23.1876Z" fill="#45766A"/>
<path d="M25.7764 20.3534C26.6501 20.3534 27.3583 19.6452 27.3583 18.7716C27.3583 17.8979 26.6501 17.1897 25.7764 17.1897C24.9028 17.1897 24.1946 17.8979 24.1946 18.7716C24.1946 19.6452 24.9028 20.3534 25.7764 20.3534Z" fill="#45766A"/>
<path d="M25.7751 25.1039C25.9935 25.1039 26.1705 24.9268 26.1705 24.7084C26.1705 24.49 25.9935 24.313 25.7751 24.313C25.5567 24.313 25.3796 24.49 25.3796 24.7084C25.3796 24.9268 25.5567 25.1039 25.7751 25.1039Z" fill="#45766A"/>
<path d="M31.2881 20.625H33.4501C33.1707 20.1772 32.6751 19.8782 32.1082 19.8782C31.2346 19.8782 30.5264 20.5863 30.5264 21.4599C30.5264 22.3337 31.2346 23.0419 32.1082 23.0419C32.6971 23.0419 33.2099 22.7194 33.4822 22.242H31.288V20.625H31.2881Z" fill="#45766A"/>
<path d="M32.6357 21.8671C32.8751 21.8671 33.0692 21.673 33.0692 21.4335C33.0692 21.1941 32.8751 21 32.6357 21C32.3963 21 32.2021 21.1941 32.2021 21.4335C32.2021 21.673 32.3963 21.8671 32.6357 21.8671Z" fill="#45766A"/>
<path d="M36.0585 23.8226C36.0536 23.4619 35.9287 23.1174 35.7053 22.6729C35.4787 22.2309 35.1392 21.695 34.649 21.0208C34.6056 20.961 34.5508 20.9104 34.4878 20.8718C34.4248 20.8332 34.3548 20.8074 34.2818 20.7959C34.2089 20.7844 34.1343 20.7874 34.0625 20.8047C33.9907 20.822 33.923 20.8533 33.8632 20.8968C33.8035 20.9402 33.7529 20.995 33.7144 21.058C33.6758 21.121 33.6501 21.191 33.6386 21.2639C33.6271 21.3369 33.6301 21.4114 33.6474 21.4832C33.6647 21.5549 33.6959 21.6226 33.7394 21.6823C34.2078 22.3259 34.519 22.8228 34.7041 23.1852C34.8226 23.412 34.8849 23.588 34.9137 23.6986C34.7538 23.6944 34.497 23.6453 34.2486 23.5863C34.1147 23.5554 33.9812 23.5228 33.8515 23.4961C33.7424 23.4743 33.6398 23.4552 33.5219 23.4482C33.5035 23.4463 33.4855 23.4425 33.4666 23.4425H30.7503C30.7472 23.4425 30.7441 23.4435 30.7409 23.4435H30.7403C30.6154 23.443 30.3965 23.468 30.1472 23.5937C29.769 23.7813 29.3614 24.1914 29.076 24.9182C28.7874 25.648 28.5935 26.7031 28.5925 28.296C28.5925 28.708 28.6058 29.1555 28.6345 29.6432C28.6432 29.7921 28.7107 29.9314 28.8222 30.0305C28.9337 30.1297 29.0799 30.1804 29.2288 30.1717C29.3777 30.163 29.517 30.0955 29.6162 29.9841C29.7153 29.8727 29.7661 29.7264 29.7574 29.5775C29.7316 29.1508 29.7183 28.7235 29.7175 28.296C29.7151 26.5933 29.9634 25.6385 30.2072 25.1393V35.6841C30.2072 36.1645 30.5964 36.5534 31.0764 36.5534C31.5564 36.5534 31.9457 36.1645 31.9457 35.6841V29.3377H32.2715V35.6841C32.2715 35.9147 32.363 36.1358 32.5261 36.2988C32.6891 36.4618 32.9102 36.5534 33.1407 36.5534C33.2549 36.5534 33.368 36.531 33.4734 36.4873C33.5789 36.4436 33.6748 36.3796 33.7555 36.2989C33.8363 36.2181 33.9003 36.1223 33.944 36.0168C33.9877 35.9114 34.0102 35.7983 34.0102 35.6841V24.6854C34.0766 24.7008 34.1447 24.7162 34.2155 24.7313C34.444 24.7788 34.6875 24.8227 34.9448 24.8239C35.1606 24.8209 35.406 24.7989 35.6583 24.6311C35.7895 24.541 35.8946 24.4177 35.9628 24.2739C36.032 24.1274 36.0588 23.9713 36.0585 23.8226Z" fill="#45766A"/>
</g>
<defs>
<clipPath id="clip0_1_33">
<rect width="36" height="36" fill="white" transform="translate(7 7)"/>
</clipPath>
</defs>
</svg>
